<?xml version="1.0" ?><!DOCTYPE svg  PUBLIC '-//W3C//DTD SVG 1.1//EN'  'http://www.w3.org/Graphics/SVG/1.1/DTD/svg11.dtd'><svg enable-background="new 0 0 128 128" id="Слой_1" version="1.1" viewBox="0 0 128 128" xml:space="preserve" xmlns="http://www.w3.org/2000/svg" xmlns:xlink="http://www.w3.org/1999/xlink"><g><g><path d="M81.009,69.573L85.5,52.565H48.444l-1.201-5.485c-0.418-2.09-2.246-3.607-4.346-3.607H36.5v4h6.397    c0.19,0,0.38,0.176,0.431,0.428l6.557,29.936c0.413,2.072,2.248,3.577,4.361,3.577h26.732v-4H54.246    c-0.213,0-0.397-0.151-0.446-0.396l-0.691-3.153l25.499-2.331C79.771,71.41,80.776,70.713,81.009,69.573z" fill="#323638"/><path d="M56.479,82.527c-2.206,0-4,1.794-4,4s1.794,4,4,4s4-1.794,4-4S58.685,82.527,56.479,82.527z" fill="#323638"/><path d="M75.065,82.527c-2.206,0-4,1.794-4,4s1.794,4,4,4s4-1.794,4-4S77.271,82.527,75.065,82.527z" fill="#323638"/></g><g><g><path d="M64,115.5c-13.756,0-26.689-5.357-36.416-15.084C17.856,90.689,12.5,77.756,12.5,64     s5.356-26.689,15.084-36.416C37.311,17.857,50.244,12.5,64,12.5s26.689,5.357,36.416,15.084     C110.144,37.311,115.5,50.244,115.5,64s-5.356,26.689-15.084,36.416C90.689,110.143,77.756,115.5,64,115.5z M64,15.5     c-12.955,0-25.135,5.045-34.295,14.205C20.545,38.866,15.5,51.045,15.5,64s5.045,25.134,14.205,34.295     c9.16,9.16,21.34,14.205,34.295,14.205s25.135-5.045,34.295-14.205C107.455,89.134,112.5,76.955,112.5,64     s-5.045-25.134-14.205-34.295C89.135,20.545,76.955,15.5,64,15.5z" fill="#303031"/></g></g></g></svg>